<svg xmlns="http://www.w3.org/2000/svg" width="2067" height="2067"><path fill-rule="evenodd" fill="#FFF" d="M1593.515 1560.665h-84.299c.122 8.58 1.894 15.76 5.315 21.542 3.418 5.781 7.862 10.042 13.335 12.775 5.47 2.736 11.377 4.103 17.718 4.103 9.2 0 16.907-2.299 23.126-6.901 6.216-4.598 9.946-10.817 11.19-18.65h13.802c-1.865 10.817-7.026 19.583-15.48 26.297-8.457 6.714-19.149 10.071-32.079 10.071-9.698 0-18.309-2.08-25.831-6.248-7.524-4.164-13.399-10.193-17.624-18.09-4.229-7.895-6.341-17.188-6.341-27.883 0-10.692 2.112-19.985 6.341-27.882 4.225-7.894 10.1-13.924 17.624-18.091 7.522-4.164 16.133-6.248 25.831-6.248 9.946 0 18.557 2.084 25.831 6.248 7.274 4.167 12.805 9.73 16.599 16.692 3.791 6.965 5.688 14.548 5.688 22.754 0 3.482-.25 6.653-.746 9.511zm-16.412-27.789c-3.235-5.717-7.586-9.946-13.055-12.682-5.473-2.733-11.441-4.103-17.905-4.103-6.592 0-12.621 1.37-18.091 4.103-5.472 2.736-9.916 6.933-13.335 12.589-3.421 5.659-5.254 12.714-5.501 21.168h71.99c.495-8.328-.871-15.354-4.103-21.075zm-176.06 27.789c.123 8.58 1.895 15.76 5.316 21.542 3.418 5.781 7.862 10.042 13.335 12.775 5.47 2.736 11.377 4.103 17.718 4.103 9.2 0 16.907-2.299 23.126-6.901 6.216-4.598 9.946-10.817 11.19-18.65h13.802c-1.865 10.817-7.026 19.583-15.48 26.297-8.457 6.714-19.149 10.071-32.079 10.071-9.698 0-18.309-2.08-25.831-6.248-7.524-4.164-13.399-10.193-17.624-18.09-4.229-7.895-6.341-17.188-6.341-27.883 0-10.692 2.112-19.985 6.341-27.882 4.225-7.894 10.1-13.924 17.624-18.091 7.522-4.164 16.133-6.248 25.831-6.248 9.946 0 18.557 2.084 25.831 6.248 7.274 4.167 12.805 9.73 16.599 16.692 3.791 6.965 5.688 14.548 5.688 22.754 0 3.482-.251 6.653-.746 9.511h-84.3zm67.888-27.789c-3.235-5.717-7.586-9.946-13.055-12.682-5.473-2.733-11.441-4.103-17.905-4.103-6.592 0-12.621 1.37-18.091 4.103-5.472 2.736-9.916 6.933-13.335 12.589-3.421 5.659-5.254 12.714-5.502 21.168h71.991c.495-8.328-.872-15.354-4.103-21.075zm-112.647 75.721h-13.055v-90.268h-15.107v-11.563h15.107v-5.036c0-11.438 3.106-20.017 9.325-25.737 6.216-5.718 15.975-8.329 29.281-7.833v11.563c-9.45-.123-16.071 1.585-19.863 5.129-3.794 3.543-5.688 9.482-5.688 17.811v4.103h25.551v11.563h-25.551v90.268zm-54.084 0h-13.056v-90.268h-15.106v-11.563h15.106v-5.036c0-11.438 3.107-20.017 9.326-25.737 6.215-5.718 15.975-8.329 29.281-7.833v11.563c-9.451-.123-16.072 1.585-19.863 5.129-3.794 3.543-5.688 9.482-5.688 17.811v4.103h25.551v11.563H1302.2v90.268zm-56.977-5.036c-7.646 4.229-16.319 6.341-26.017 6.341s-18.403-2.112-26.11-6.341c-7.711-4.225-13.773-10.287-18.184-18.184-4.415-7.894-6.621-17.126-6.621-27.696 0-10.692 2.206-19.985 6.621-27.882 4.411-7.894 10.473-13.924 18.184-18.091 7.707-4.164 16.412-6.248 26.11-6.248s18.371 2.084 26.017 6.248c7.647 4.167 13.644 10.197 17.998 18.091 4.351 7.897 6.528 17.19 6.528 27.882 0 10.695-2.177 19.956-6.528 27.789-4.354 7.833-10.351 13.866-17.998 18.091zm6.062-68.54c-3.483-6.154-8.052-10.724-13.708-13.708-5.659-2.984-11.782-4.476-18.371-4.476-6.714 0-12.933 1.492-18.65 4.476-5.721 2.984-10.322 7.554-13.801 13.708-3.483 6.155-5.223 13.708-5.223 22.66s1.74 16.477 5.223 22.567c3.479 6.094 8.08 10.631 13.801 13.615 5.717 2.984 11.936 4.476 18.65 4.476 6.589 0 12.712-1.492 18.371-4.476 5.656-2.984 10.225-7.521 13.708-13.615 3.479-6.09 5.222-13.615 5.222-22.567s-1.743-16.505-5.222-22.66zm-179.51 56.044c7.396 4.477 15.634 6.715 24.712 6.715 11.936 0 21.943-2.798 30.027-8.393 8.081-5.595 13.862-13.117 17.345-22.567h13.801c-4.228 13.428-11.502 23.966-21.821 31.612-10.322 7.647-23.377 11.47-39.166 11.47-12.061 0-22.817-2.858-32.265-8.579-9.45-5.717-16.785-13.644-22.007-23.779-5.222-10.132-7.833-21.664-7.833-34.596 0-13.056 2.611-24.68 7.833-34.877 5.222-10.193 12.557-18.12 22.007-23.779 9.448-5.656 20.204-8.486 32.265-8.486 15.789 0 28.844 3.824 39.166 11.47 10.319 7.647 17.593 18.184 21.821 31.613h-13.801c-3.483-9.448-9.264-16.972-17.345-22.567-8.084-5.595-18.091-8.393-30.027-8.393-9.078 0-17.316 2.238-24.712 6.714-7.399 4.476-13.212 10.881-17.438 19.21-4.228 8.331-6.341 18.03-6.341 29.095 0 11.067 2.113 20.733 6.341 29.001 4.226 8.27 10.039 14.64 17.438 19.116zm-156.008 65.65l20.515-49.237-40.097-94.142v5.739h-4.29c-9.823 0-17.968 2.643-24.432 7.926-6.466 5.287-9.698 13.895-9.698 25.831v55.765h-13.242v-101.831h13.242v21.075c2.984-7.335 7.769-12.991 14.361-16.972 6.589-3.978 14.608-5.968 24.059-5.968v1.865h11.748l35.436 84.859 32.638-84.859h14.547l-59.867 149.949h-14.92zm-104.44-73.296c-2.611 8.83-7.338 15.544-14.174 20.142-6.84 4.602-14.673 6.901-23.5 6.901-11.936 0-21.605-3.759-29.001-11.284-7.399-7.521-11.097-18.557-11.097-33.104v-59.308h13.055v58.189c0 11.19 2.798 19.74 8.393 25.644 5.595 5.907 13.242 8.859 22.94 8.859 10.193 0 18.306-3.264 24.338-9.791 6.03-6.528 9.046-16.133 9.046-28.815v-54.086h13.055v101.831h-13.055v-25.178zm-98.285 25.178l-27.976-41.591-25.924 41.591h-14.361l33.198-52.408-33.198-49.423h14.921l27.229 40.471 25.551-40.471h14.361l-33.011 50.915 34.13 50.916h-14.92zm-90.64-25.178c-2.611 8.83-7.337 15.544-14.174 20.142-6.839 4.602-14.672 6.901-23.499 6.901-11.937 0-21.606-3.759-29.002-11.284-7.399-7.521-11.097-18.557-11.097-33.104v-59.308h13.056v58.189c0 11.19 2.797 19.74 8.392 25.644 5.595 5.907 13.242 8.859 22.94 8.859 10.194 0 18.307-3.264 24.339-9.791 6.029-6.528 9.045-16.133 9.045-28.815v-54.086h13.056v101.831h-13.056v-25.178zm-145.284-106.307h13.242v121.041h47.745v10.444h-60.987v-131.485zM1035 1358s-9-258.5-12-326-11-372-11-372-24.513 4.409-27-13c-2-14 10-39 10-39s-7-14.5-2-27 20-14 20-14l2-51s-7.5-19 32-21 53.5-6 100-6 115.5 6 160 7 108-2.5 132 1 28 4.5 31 13 0 64 0 64 23.5 1 23 8-8 11.5-7 22 2.5 18.5 2 26-2.5 10.5-5 9-8.5-16-12-23-2.5-12-2-15 4-5-4-7-16-3-16-3l-1-65s-89.513-9.03-201-11c-141.5-2.5-208 9-208 9l-1 48s1 12 0 16-15.41 3.764-21 6c-1.25.5 1 5 1 5s2 7.25 1 13-10.25 20.25-8 22 26 1 26 1l16 702s136.667 1 178 1 186 1 186 1 3.333-121 5-155c1.667-34 7-108.333 8-121 1-12.667 9-89 9-89s3.333-6 3-3c-.333 3-3 74.333-4 102s-1.667 65.333-3 74c-1.333 8.667-4.333 36-4 58 .333 22 1 43 1 43l-3 5v14l4 5s.333 37.667 0 56 1.333 25-1 26-148.333-1.667-213 0-184 4-184 4zm461-721v3c-3.146 1.873-2.838 3.699-8 4-1.722 1.558-15.941.119-21 0v1h-1v3h-1v4h1c.265 1.708-.924 1.689-1 2v5h-1v10h-1v11h-1v10h-1v11h-1c-.709 2.326-.218 3.96-1 6-1.135-.844-.145.127-1-1-2.686-2.991-.129-13.651 0-18l4-45c6.091-3.166 18.785-2.075 28-2 1.365-2.512 2.333-3.605 6-4zm-51 406l-3 1v-1c-2.814-1.892-2.159-7.309-2-12 3.226-3.796-.561-13.466 1-19 3.057-10.837-.035-26.201 3-37v-19c3.047-10.795-.048-26.16 3-37v-16h1v-4h1v-3h1v-3h1c1.593-5.012-.431-14.914 1-20v-13l1-27h1v-15-5h1v-8c.013-7.08.139-13.077 2-18 1.135.844.145-.127 1 1 1.104 1.25 1.849 14.004 1 17-1.46 5.153.633 14.236-1 20h-1l-1 31-1 29h-1l1 16-2 1v13h-1v19c-2.993 10.57-.016 26.399-3 37v18c-1.376 4.862.551 13.52-1 19h-1v15l-2 20zm1-197h-3l1-20 2-1v-1h1v1c2.12 2.336-.767 16.463-1 21zm-4 67h-4l3-38c1.314-.809 1.178-.704 2-2 1.135.844.145-.127 1 1 2.162 1.419 2.01 2.366 2 6-2.1 2.434.052 7.248-1 11-1.725 6.15-1.837 15.469-3 22z"/><path stroke="#FFF" stroke-width="10" fill="none" d="M1031 5c566.644 0 1026 459.356 1026 1026s-459.356 1026-1026 1026S5 1597.644 5 1031 464.356 5 1031 5z"/><path fill-rule="evenodd" fill="#FFF" d="M1577 685c26.845 2.131 62.947 9.603 65.175 33.978-29.913 80.831-62.557 204.729-35.175 302.022 8.611 30.596 28.065 68.626 75 61 58.287-9.471 100.929-146.762 87-264-3.229-32.42-9.771-62.58-13-95 8.222-25.771 60.058-48.885 85-32 19.639 27.151 17.894 133.879 19 186-2.29 25.953-2.475 35.212-4.766 61.164-20.642 98.894-57.254 181.09-149.234 210.836-.774 32.324-1.676 61.974 3.55 101.798 1.402 10.551 3.372 15.778 1.45 26.202-17.928 23.1-87.859 23.775-93-14 1.526-7.966.474-22.034 2-30 4.286-21.984 5.023-61.241 2-82-121.839-27.38-128.892-177.794-112-311 5.631-44.402 19.182-137.919 37.645-146.295 8.291-3.762 19.496-5.173 29.355-8.705zM567 788c-.163-2.277-9.301-84.954-16.475-95.891-2.721-4.149-8.151-7.439-17.525-8.109-21-1.5-51.412 5.485-68 25-8.5 10-6 16-6 16s23 142.5 14 203-27 150.5-87 153-72-87.5-79-130 7.5-133 16-170 21.5-62.5 21-70-26.5-24.5-45-26-44.5-6.5-58 16-32.5 177-29 233 9 96 26 130 31.5 59.5 63 73 39.5 10.5 40 14-3 83.5-5 96-7 24 6 34 11 13 40 13 47-15 47-23-4-10-5-35 0-89 0-89 91.609-17.498 124.884-151.03C573.98 895.263 566.905 792.546 567 788m77-75s-19.5 92.5-24 153-13 135-4 209 25.5 139.5 51 167 43.735 51.803 97 49c28.5-1.5 54-19 69-31s35-40 38-40 1 12.5 0 27-9 27 15 38 49.5 5 57 1 11-11 11-15-2.5-8.5-4-38-.5-120.5 4-209 6.5-172.5 13-230 10.5-82.5 4-93-20-15.5-27-15-37 9-50 24-16.5 18-17 28 5.5 51 4 121 0 165.5-2 203-4.5 49-13 70-14.5 30.5-28 50-44 42-68 44-55.5-12.5-66-51-16-59-16-117 5.5-107.5 19-180 35-154.5 36-162-21-22-38-26-32-5-43 0-18 23-18 23zm468 570c20-.5 28.5-3 34-5s9.333-5.333 8-8c-1.333-2.667-3.333-6.667-4-32-.667-25.333 2.333-52.334 4-78 1.667-25.667 3.333-51.667 6-51 2.667.666 14 19 23 37s10 27.333 17 32c7 4.666 18.667 7 36 7s22-2.667 28-5c6-2.334 9.333-3.334 12-8 2.667-4.667-.333-2 8-17s35.333-51 38-51c2.667 0-.334 39.333 0 56 .333 16.666-2.667 68.667-4 80-1.333 11.333-4.667 22.667-4 28 .667 5.333 7 15.667 39 15 32-.667 39-7 41-10s-.667-2-2-20-4-47.667 2-106 10-92 13-110 9.666-35 8-40c-1.667-5-12.333-14.334-33-13-20.667 1.333-42.667 8.333-52 15-9.334 6.667-8 8-8 8s-56 86.667-60 91c-4 4.333-19 23.666-23 24-4 .333-22-35-30-52s-33.333-66.667-36-71c-2.667-4.334-4.333-12.667-16-15-11.667-2.334-30.333 0-45 5-14.667 5-27.667 11-29 17-1.333 6 3.667 49.666 1 108-2.667 58.333-5.333 114.667-7 126-1.667 11.333-5.667 28.333-4 31 1.667 2.667 19 12.5 39 12zm.442-314.531c20.018-.5 28.526-3.001 34.031-5.001 5.505-2.001 9.342-5.335 8.007-8.002-1.334-2.667-3.336-6.668-4.003-32.007-.667-25.338 2.335-52.344 4.003-78.016 1.669-25.672 3.337-51.678 6.006-51.011 2.669.667 14.013 19.004 23.021 37.008 9.008 18.004 10.009 27.339 17.015 32.007 7.007 4.667 18.684 7.001 36.033 7.001s22.02-2.667 28.026-5.001c6.005-2.334 9.342-3.334 12.011-8.002 2.669-4.667-.334-2 8.007-17.003s35.365-51.011 38.035-51.011c2.669 0-.334 39.342 0 56.012.333 16.67-2.67 68.681-4.004 80.017-1.335 11.335-4.671 22.671-4.004 28.005.668 5.335 7.007 15.67 39.036 15.004 32.029-.667 39.035-7.002 41.037-10.002 2.002-3.001-.667-2.001-2.002-20.005-1.334-18.003-4.003-47.676 2.002-106.022 6.006-58.345 10.009-92.019 13.012-110.023 3.003-18.003 9.676-35.007 8.007-40.008-1.668-5.001-12.344-14.336-33.03-13.003-20.685 1.334-42.705 8.335-52.047 15.004-9.342 6.668-8.007 8.001-8.007 8.001s-56.051 86.685-60.055 91.019c-4.004 4.334-19.017 23.672-23.021 24.005-4.004.334-22.02-35.007-30.028-52.011-8.007-17.003-33.363-66.68-36.032-71.014-2.669-4.335-4.338-12.67-16.015-15.004-11.677-2.334-30.361 0-45.041 5.001-14.68 5.001-27.692 11.003-29.026 17.004-1.335 6.001 3.67 49.677 1 108.022-2.669 58.346-5.338 114.691-7.006 126.027-1.668 11.335-5.672 28.339-4.004 31.006 1.669 2.667 19.018 12.503 39.036 12.003z"/></svg>
