<svg height="1200" version="1" width="1100" xmlns="http://www.w3.org/2000/svg" xmlns:xlink="http://www.w3.org/1999/xlink"><defs><linearGradient id="l"><stop offset="0" stop-color="#ff6134"/><stop offset="1" stop-color="red"/></linearGradient><linearGradient id="k"><stop offset="0" stop-color="#5f0000" stop-opacity="0"/><stop offset=".5" stop-color="red" stop-opacity="0"/><stop offset="1" stop-color="#590000"/></linearGradient><linearGradient id="j"><stop offset="0" stop-color="red" stop-opacity="0"/><stop offset=".5" stop-color="red" stop-opacity="0"/><stop offset=".75" stop-color="#a60000" stop-opacity="0"/><stop offset="1" stop-color="#540000"/></linearGradient><linearGradient id="b"><stop offset="0" stop-color="#525252"/><stop offset="1" stop-color="#d9d9d9"/></linearGradient><linearGradient id="e"><stop offset="0" stop-color="#00f1ff" stop-opacity="0"/><stop offset=".5" stop-color="#00c9ff" stop-opacity="0"/><stop offset=".75" stop-color="#0065a6" stop-opacity="0"/><stop offset="1" stop-color="#002454"/></linearGradient><linearGradient id="a"><stop offset="0"/><stop offset="1" stop-opacity="0"/></linearGradient><linearGradient id="c"><stop offset="0" stop-color="#fff"/><stop offset="1" stop-color="#fff" stop-opacity="0"/></linearGradient><linearGradient id="f"><stop offset="0" stop-color="#00575f" stop-opacity="0"/><stop offset=".5" stop-color="#0062ff" stop-opacity="0"/><stop offset="1" stop-color="#002859"/></linearGradient><linearGradient id="d"><stop offset="0" stop-color="#34abff"/><stop offset="1" stop-color="#0057ff"/></linearGradient><radialGradient cx="457.143" cy="263.791" fx="457.143" fy="263.791" gradientUnits="userSpaceOnUse" id="s" r="94.286" xlink:href="#c"/><radialGradient cx="457.143" cy="263.791" fx="457.143" fy="263.791" gradientUnits="userSpaceOnUse" id="t" r="94.286" xlink:href="#c"/><radialGradient cx="480.134" cy="516.869" fx="480.134" fy="516.869" gradientTransform="scale(.83995 1.19054)" gradientUnits="userSpaceOnUse" id="v" r="175.437" xlink:href="#c"/><radialGradient cx="480.134" cy="516.869" fx="480.134" fy="516.869" gradientTransform="scale(.83995 1.19054)" gradientUnits="userSpaceOnUse" id="w" r="175.437" xlink:href="#c"/><radialGradient cx="413.888" cy="440.374" fx="413.888" fy="440.374" gradientTransform="matrix(.9683 -.21503 .29652 1.33529 -211.6 -61.667)" gradientUnits="userSpaceOnUse" id="y" r="359.535" xlink:href="#e"/><linearGradient gradientTransform="matrix(1.2302 -.27318 .17203 .77468 -201.806 -17.563)" gradientUnits="userSpaceOnUse" id="x" x1="336.154" x2="345.4" xlink:href="#a" y1="1203.608" y2="608.364"/><linearGradient gradientTransform="matrix(.83134 -.1846 .25456 1.14636 -201.806 -17.563)" gradientUnits="userSpaceOnUse" id="u" x1="-683.498" x2="1100.712" xlink:href="#f" y1="-283.389" y2="504.578"/><linearGradient gradientTransform="matrix(1.18355 -.26282 .1788 .8052 -201.806 -17.563)" gradientUnits="userSpaceOnUse" id="r" x1="350.373" x2="285.902" xlink:href="#c" y1="168.429" y2="601.162"/><radialGradient cx="478.657" cy="290.044" fx="478.657" fy="290.044" gradientTransform="matrix(.9683 -.21503 .29652 1.33529 -211.6 -61.667)" gradientUnits="userSpaceOnUse" id="q" r="372.486" xlink:href="#f"/><radialGradient cx="462.465" cy="233.671" fx="462.465" fy="233.671" gradientTransform="matrix(.9683 -.21503 .29652 1.33529 -211.6 -61.667)" gradientUnits="userSpaceOnUse" id="p" r="330.328" xlink:href="#d"/><linearGradient gradientTransform="matrix(1.21908 0 0 .82029 0 -6)" gradientUnits="userSpaceOnUse" id="A" x1="309.157" x2="302.307" xlink:href="#d" y1="900.839" y2="958.593"/><linearGradient gradientTransform="matrix(1.21908 0 0 .82029 0 -6)" gradientUnits="userSpaceOnUse" id="B" x1="299.345" x2="301.381" xlink:href="#a" y1="959.688" y2="945.181"/><linearGradient gradientTransform="matrix(1.21908 0 0 .82029 0 -6)" gradientUnits="userSpaceOnUse" id="C" x1="293.05" x2="311.934" xlink:href="#a" y1="901.66" y2="937.791"/><linearGradient gradientTransform="matrix(1.21908 0 0 .82029 0 -6)" gradientUnits="userSpaceOnUse" id="D" x1="293.235" x2="310.453" xlink:href="#a" y1="923.831" y2="927.116"/><radialGradient cx="214.764" cy="1378.803" fx="214.764" fy="1378.803" gradientTransform="matrix(1.46863 0 0 .42526 72.665 179.83)" gradientUnits="userSpaceOnUse" id="E" r="15.406" xlink:href="#c"/><radialGradient cx="378.571" cy="752.362" fx="378.571" fy="752.362" gradientUnits="userSpaceOnUse" id="F" r="8.571" xlink:href="#c"/><radialGradient cx="269.789" cy="1031.84" fx="269.789" fy="1031.84" gradientTransform="scale(1.39262 .71807)" gradientUnits="userSpaceOnUse" id="z" r="32.826" xlink:href="#a"/><linearGradient gradientTransform="matrix(.36618 0 0 2.73092 0 -6)" gradientUnits="userSpaceOnUse" id="o" x1="1062.968" x2="1074.982" xlink:href="#b" y1="281.094" y2="396.197"/><radialGradient cx="370.706" cy="771.549" fx="370.706" fy="771.549" gradientTransform="matrix(1.01536 0 0 .98487 0 -6)" gradientUnits="userSpaceOnUse" id="G" r="27.48" xlink:href="#b"/><linearGradient gradientTransform="matrix(.8221 0 0 1.2164 0 -6)" gradientUnits="userSpaceOnUse" id="L" spreadMethod="reflect" x1="423.763" x2="448.118" xlink:href="#b" y1="614.405" y2="654.132"/><linearGradient gradientTransform="matrix(.64452 0 0 1.55154 0 -6)" gradientUnits="userSpaceOnUse" id="H" spreadMethod="reflect" x1="608.266" x2="572.031" xlink:href="#b" y1="588.048" y2="590.562"/><linearGradient gradientTransform="matrix(.81392 0 0 1.22862 0 -6)" gradientUnits="userSpaceOnUse" id="I" spreadMethod="reflect" x1="469.012" x2="491.663" xlink:href="#b" y1="838.202" y2="843.225"/><linearGradient gradientTransform="matrix(.81392 0 0 .8325 13.674 316.168)" gradientUnits="userSpaceOnUse" id="J" x1="432.333" x2="442.939" xlink:href="#a" y1="816.665" y2="835.014"/><linearGradient gradientTransform="scale(1.01536 .98487)" gradientUnits="userSpaceOnUse" id="K" spreadMethod="reflect" x1="370.795" x2="381.529" xlink:href="#a" y1="747.381" y2="754.63"/><radialGradient cx="247.709" cy="1161.088" fx="247.709" fy="1161.419" gradientTransform="scale(1.5804 .63275)" gradientUnits="userSpaceOnUse" id="M" r="14.647" xlink:href="#a"/><linearGradient id="g"><stop offset="0" stop-color="#ffff34"/><stop offset="1" stop-color="#ffc200"/></linearGradient><linearGradient id="h"><stop offset="0" stop-color="#5a5f00" stop-opacity="0"/><stop offset=".5" stop-color="#ffde00" stop-opacity="0"/><stop offset="1" stop-color="#cf9800"/></linearGradient><linearGradient id="n"><stop offset="0" stop-color="#fff"/><stop offset="1" stop-color="#fff" stop-opacity="0"/></linearGradient><linearGradient id="m"><stop offset="0"/><stop offset="1" stop-opacity="0"/></linearGradient><linearGradient id="i"><stop offset="0" stop-color="#ffdf00" stop-opacity="0"/><stop offset=".5" stop-color="#ff9f00" stop-opacity="0"/><stop offset=".75" stop-color="#ff9a00" stop-opacity="0"/><stop offset="1" stop-color="#793900"/></linearGradient><radialGradient cx="247.709" cy="1161.088" fx="247.709" fy="1161.419" gradientTransform="matrix(1.57257 -.15705 .06288 .62962 -17.724 122.41)" gradientUnits="userSpaceOnUse" id="aL" r="14.647" xlink:href="#a"/><linearGradient gradientTransform="matrix(-.78264 .25163 .37232 1.15803 576.357 -7.936)" gradientUnits="userSpaceOnUse" id="aK" spreadMethod="reflect" x1="423.763" x2="448.118" xlink:href="#b" y1="614.405" y2="654.132"/><linearGradient gradientTransform="matrix(1.01034 -.1009 .09787 .98 -17.724 122.41)" gradientUnits="userSpaceOnUse" id="aJ" spreadMethod="reflect" x1="370.795" x2="381.529" xlink:href="#a" y1="747.381" y2="754.63"/><linearGradient gradientTransform="matrix(-.61798 .18305 .44065 1.48765 597.503 -4.426)" gradientUnits="userSpaceOnUse" id="aG" spreadMethod="reflect" x1="608.266" x2="572.031" xlink:href="#b" y1="588.048" y2="590.562"/><radialGradient cx="370.706" cy="771.549" fx="370.706" fy="771.549" gradientTransform="matrix(1.01034 -.1009 .09787 .98 -18.32 116.44)" gradientUnits="userSpaceOnUse" id="aF" r="27.48" xlink:href="#b"/><radialGradient cx="378.571" cy="752.362" fx="378.571" fy="752.362" gradientTransform="matrix(.44933 -.21734 .43543 .90022 -57.85 230.668)" gradientUnits="userSpaceOnUse" id="aE" r="8.571" xlink:href="#c"/><radialGradient cx="214.764" cy="1378.803" fx="214.764" fy="1378.803" gradientTransform="matrix(1.46136 -.14594 .04226 .42316 92.45 294.129)" gradientUnits="userSpaceOnUse" id="aD" r="15.406" xlink:href="#c"/><linearGradient gradientTransform="matrix(1.21305 -.12114 .08151 .81623 1.68 116.44)" gradientUnits="userSpaceOnUse" id="aC" x1="293.235" x2="310.453" xlink:href="#a" y1="923.831" y2="927.116"/><linearGradient gradientTransform="matrix(1.21305 -.12114 .08151 .81623 1.68 116.44)" gradientUnits="userSpaceOnUse" id="aB" x1="293.05" x2="311.934" xlink:href="#a" y1="901.66" y2="937.791"/><linearGradient gradientTransform="matrix(1.21305 -.12114 .08151 .81623 1.68 116.44)" gradientUnits="userSpaceOnUse" id="aA" x1="299.345" x2="301.381" xlink:href="#a" y1="959.688" y2="945.181"/><linearGradient gradientTransform="matrix(1.21305 -.12114 .08151 .81623 1.68 116.44)" gradientUnits="userSpaceOnUse" id="az" x1="309.157" x2="302.307" xlink:href="#l" y1="900.839" y2="958.593"/><radialGradient cx="269.789" cy="1031.84" fx="269.789" fy="1031.84" gradientTransform="matrix(1.30387 -.33682 .14896 .45905 -58.59 432.365)" gradientUnits="userSpaceOnUse" id="ay" r="32.826" xlink:href="#a"/><radialGradient cx="413.888" cy="440.374" fx="413.888" fy="440.374" gradientTransform="matrix(.94215 -.31018 .42774 1.29921 -214.405 82.076)" gradientUnits="userSpaceOnUse" id="ax" r="359.535" xlink:href="#j"/><linearGradient gradientTransform="matrix(1.19696 -.39408 .24816 .75375 -200.277 124.989)" gradientUnits="userSpaceOnUse" id="aw" x1="336.154" x2="345.4" xlink:href="#a" y1="1203.608" y2="608.364"/><radialGradient cx="480.134" cy="516.869" fx="480.134" fy="516.869" gradientTransform="matrix(.38873 -.31541 .42025 .51793 -35.161 543.488)" gradientUnits="userSpaceOnUse" id="av" r="175.437" xlink:href="#c"/><radialGradient cx="480.134" cy="516.869" fx="480.134" fy="516.869" gradientTransform="matrix(.65225 -.52924 .75014 .9245 -378.414 379.692)" gradientUnits="userSpaceOnUse" id="au" r="175.437" xlink:href="#c"/><linearGradient gradientTransform="matrix(.80888 -.2663 .36722 1.11539 -200.277 124.989)" gradientUnits="userSpaceOnUse" id="at" x1="-683.498" x2="1100.712" xlink:href="#k" y1="-283.389" y2="504.578"/><radialGradient cx="457.143" cy="263.791" fx="457.143" fy="263.791" gradientTransform="rotate(-18.223 163.567 1017.155) scale(1.21212)" gradientUnits="userSpaceOnUse" id="as" r="94.286" xlink:href="#c"/><radialGradient cx="457.143" cy="263.791" fx="457.143" fy="263.791" gradientTransform="matrix(.40297 -.13267 .13267 .40297 97.222 186.942)" gradientUnits="userSpaceOnUse" id="ar" r="94.286" xlink:href="#c"/><linearGradient gradientTransform="matrix(1.15158 -.37914 .25794 .78345 -200.277 124.989)" gradientUnits="userSpaceOnUse" id="aq" x1="350.373" x2="285.902" xlink:href="#c" y1="168.429" y2="601.162"/><radialGradient cx="478.657" cy="290.044" fx="478.657" fy="290.044" gradientTransform="matrix(.94215 -.31018 .42774 1.29921 -214.405 82.076)" gradientUnits="userSpaceOnUse" id="ao" r="372.486" xlink:href="#k"/><radialGradient cx="462.465" cy="233.671" fx="462.465" fy="233.671" gradientTransform="matrix(.94215 -.31018 .42774 1.29921 -214.405 82.076)" gradientUnits="userSpaceOnUse" id="an" r="330.328" xlink:href="#l"/><linearGradient gradientTransform="matrix(.36436 -.03639 .27138 2.7174 1.68 116.44)" gradientUnits="userSpaceOnUse" id="am" x1="1062.968" x2="1074.982" xlink:href="#b" y1="281.094" y2="396.197"/><linearGradient gradientTransform="matrix(.8099 -.08088 .1221 1.22254 1.68 116.44)" gradientUnits="userSpaceOnUse" id="aH" spreadMethod="reflect" x1="469.012" x2="491.663" xlink:href="#b" y1="838.202" y2="843.225"/><linearGradient gradientTransform="matrix(.8099 -.08088 .1221 1.22254 1.68 116.44)" gradientUnits="userSpaceOnUse" id="aI" x1="432.333" x2="442.939" xlink:href="#a" y1="816.665" y2="835.014"/><radialGradient cx="893.914" cy="318.434" fx="893.914" fy="318.434" gradientTransform="scale(.72831 1.37304)" gradientUnits="userSpaceOnUse" id="ap" r="179.963" xlink:href="#l"/><linearGradient gradientTransform="scale(.61237 1.633)" gradientUnits="userSpaceOnUse" id="aM" x1="638.594" x2="954.382" xlink:href="#g" y1="290.112" y2="290.112"/><linearGradient gradientTransform="matrix(.86745 -.09367 .4322 .63112 -2.067 133.58)" gradientUnits="userSpaceOnUse" id="aN" x1="309.157" x2="302.307" xlink:href="#l" y1="900.839" y2="958.593"/><radialGradient cx="247.709" cy="1161.088" fx="247.709" fy="1161.419" gradientTransform="matrix(1.45886 .60775 -.24333 .5841 637.617 -42.126)" gradientUnits="userSpaceOnUse" id="al" r="14.647" xlink:href="#a"/><linearGradient gradientTransform="matrix(.75888 .31614 -.46778 1.12287 639.924 -47.664)" gradientUnits="userSpaceOnUse" id="ak" spreadMethod="reflect" x1="423.763" x2="448.118" xlink:href="#b" y1="614.405" y2="654.132"/><linearGradient gradientTransform="matrix(.93728 .39046 -.37874 .90913 637.617 -42.126)" gradientUnits="userSpaceOnUse" id="aj" spreadMethod="reflect" x1="370.795" x2="381.529" xlink:href="#a" y1="747.381" y2="754.63"/><linearGradient gradientTransform="matrix(.75133 .313 -.47247 1.13414 639.924 -47.664)" gradientUnits="userSpaceOnUse" id="ai" x1="432.333" x2="442.939" xlink:href="#a" y1="816.665" y2="835.014"/><linearGradient gradientTransform="matrix(.75133 .313 -.47247 1.13414 639.924 -47.664)" gradientUnits="userSpaceOnUse" id="ah" spreadMethod="reflect" x1="469.012" x2="491.663" xlink:href="#b" y1="838.202" y2="843.225"/><linearGradient gradientTransform="matrix(.59496 .24785 -.59666 1.43223 639.924 -47.664)" gradientUnits="userSpaceOnUse" id="ag" spreadMethod="reflect" x1="608.266" x2="572.031" xlink:href="#b" y1="588.048" y2="590.562"/><radialGradient cx="370.706" cy="771.549" fx="370.706" fy="771.549" gradientTransform="matrix(.93728 .39046 -.37874 .90913 639.924 -47.664)" gradientUnits="userSpaceOnUse" id="af" r="27.48" xlink:href="#b"/><radialGradient cx="378.571" cy="752.362" fx="378.571" fy="752.362" gradientTransform="matrix(.49865 .02183 -.04374 .99904 550.939 34.14)" gradientUnits="userSpaceOnUse" id="ae" r="8.571" xlink:href="#c"/><radialGradient cx="214.764" cy="1378.803" fx="214.764" fy="1378.803" gradientTransform="matrix(1.3557 .56477 -.16354 .39256 635.54 151.818)" gradientUnits="userSpaceOnUse" id="ad" r="15.406" xlink:href="#c"/><linearGradient gradientTransform="matrix(1.12534 .4688 -.31545 .75721 639.924 -47.664)" gradientUnits="userSpaceOnUse" id="ac" x1="293.235" x2="310.453" xlink:href="#a" y1="923.831" y2="927.116"/><linearGradient gradientTransform="matrix(1.12534 .4688 -.31545 .75721 639.924 -47.664)" gradientUnits="userSpaceOnUse" id="ab" x1="293.05" x2="311.934" xlink:href="#a" y1="901.66" y2="937.791"/><linearGradient gradientTransform="matrix(1.12534 .4688 -.31545 .75721 639.924 -47.664)" gradientUnits="userSpaceOnUse" id="aa" x1="299.345" x2="301.381" xlink:href="#a" y1="959.688" y2="945.181"/><linearGradient gradientTransform="matrix(1.12534 .4688 -.31545 .75721 639.924 -47.664)" gradientUnits="userSpaceOnUse" id="Z" x1="309.157" x2="302.307" xlink:href="#g" y1="900.839" y2="958.593"/><radialGradient cx="269.789" cy="1031.84" fx="269.789" fy="1031.84" gradientTransform="matrix(1.3076 .32203 -.08663 .47478 436.998 201.86)" gradientUnits="userSpaceOnUse" id="Y" r="32.826" xlink:href="#a"/><radialGradient cx="413.888" cy="440.374" fx="413.888" fy="440.374" gradientTransform="matrix(.97653 .17388 -.23978 1.34663 466.003 -180.423)" gradientUnits="userSpaceOnUse" id="X" r="359.535" xlink:href="#i"/><linearGradient gradientTransform="matrix(1.24065 .2209 -.1391 .78126 458.084 -135.944)" gradientUnits="userSpaceOnUse" id="W" x1="336.154" x2="345.4" xlink:href="#a" y1="1203.608" y2="608.364"/><radialGradient cx="480.134" cy="516.869" fx="480.134" fy="516.869" gradientTransform="matrix(.49183 -.09326 .12426 .6553 404.908 310.797)" gradientUnits="userSpaceOnUse" id="V" r="175.437" xlink:href="#c"/><radialGradient cx="480.134" cy="516.869" fx="480.134" fy="516.869" gradientTransform="matrix(.82525 -.15648 .2218 1.1697 180.439 3.77)" gradientUnits="userSpaceOnUse" id="U" r="175.437" xlink:href="#c"/><linearGradient gradientTransform="matrix(.8384 .14928 -.20585 1.1561 458.084 -135.944)" gradientUnits="userSpaceOnUse" id="T" x1="-683.498" x2="1100.712" xlink:href="#h" y1="-283.389" y2="504.578"/><radialGradient cx="457.143" cy="263.791" fx="457.143" fy="263.791" gradientTransform="rotate(10.096 1363.732 2004.05) scale(1.21212)" gradientUnits="userSpaceOnUse" id="S" r="94.286" xlink:href="#c"/><radialGradient cx="457.143" cy="263.791" fx="457.143" fy="263.791" gradientTransform="scale(.42424) rotate(10.096 17.062 9284.393)" gradientUnits="userSpaceOnUse" id="R" r="94.286" xlink:href="#c"/><linearGradient gradientTransform="matrix(1.19361 .21253 -.1446 .81205 0 0)" gradientUnits="userSpaceOnUse" id="Q" x1="681.003" x2="606.261" xlink:href="#c" y1="1.503" y2="160.016"/><radialGradient cx="478.657" cy="290.044" fx="478.657" fy="290.044" gradientTransform="matrix(.97653 .17388 -.23978 1.34663 466.003 -180.423)" gradientUnits="userSpaceOnUse" id="P" r="372.486" xlink:href="#h"/><radialGradient cx="462.465" cy="233.671" fx="462.465" fy="233.671" gradientTransform="matrix(.97653 .17388 -.23978 1.34663 466.003 -180.423)" gradientUnits="userSpaceOnUse" id="O" r="330.328" xlink:href="#g"/><linearGradient gradientTransform="matrix(.33802 .14082 -1.0502 2.52092 639.924 -47.664)" gradientUnits="userSpaceOnUse" id="N" x1="1062.968" x2="1074.982" xlink:href="#b" y1="281.094" y2="396.197"/><linearGradient gradientTransform="matrix(.555 .01759 .09212 .42968 275.044 290.569)" gradientUnits="userSpaceOnUse" id="aP" x1="309.157" x2="302.307" xlink:href="#g" y1="900.839" y2="958.593"/><linearGradient gradientTransform="matrix(.49907 .54378 -.99819 .91612 586.874 -250.89)" gradientUnits="userSpaceOnUse" id="aQ" x1="878.35" x2="921.755" xlink:href="#n" y1="504.53" y2="572.125"/><linearGradient gradientTransform="matrix(.73148 .09852 -.18085 1.34274 97.836 -77.665)" gradientUnits="userSpaceOnUse" id="aO" x1="878.35" x2="921.755" xlink:href="#m" y1="504.53" y2="572.125"/></defs><path d="M369.756 746.347l40.334 399.158h7.111l-37.384-400.168-10.06 1.01z" fill="url(#o)" fill-rule="evenodd" transform="translate(164.088 17.006)"/><path d="M558.538 282.827c39.66 178.598-67.947 439.466-174.545 466.065C280.185 774.87 68.25 579.108 28.59 400.51-11.07 221.912 75.45 50.602 221.716 18.12c146.265-32.48 297.162 86.108 336.822 264.706z" opacity=".75" fill="url(#p)" fill-rule="evenodd" transform="translate(164.088 17.006)"/><path d="M558.538 282.827c39.66 178.598-67.947 439.466-174.545 466.065C280.185 774.87 68.25 579.108 28.59 400.51-11.07 221.912 75.45 50.602 221.716 18.12c146.265-32.48 297.162 86.108 336.822 264.706z" fill="url(#q)" fill-rule="evenodd" transform="translate(164.088 17.006)"/><path d="M171.194 67.388c-12.157.124-36.515 19.763-45.87 30.673-19.233 22.433-30.837 37.65-41.846 61.974-16.9 37.343 4.575 39.084 32.847 16.12 21.6-17.544-12.857 35.603-15.812 47.412-4.934 19.723-24.964 31.75-34.405 42.761-9.848 11.486-7.246 33.213-27.588 47.101-22.198 15.155 18.254 23.315 29.746 28.515 18.361 8.31-10.76 46.533 27.888 20.148 22.79-15.558 16.77-31.547 31.92-1.235 4.996 9.997 47.587-37.133 49.59-40.28 2.34-3.675-3.854-56.895-4.64-60.43-.015-.072 13.061-19.124 28.824-15.181 24.45 6.116 16.739 28.76 38.737 3.105 11.176-13.036 25.825 50.397 26.333 52.687 7.291 32.832 48.788-4.867 62.29 3.728 14.42 9.18 9.084 39.311 25.714 49.898 13.12 8.351 43.278-30.364 47.42-36.871 13.557-21.296.69-23.51 38.118.315 26.363 16.782 22.406-31.973 58.262-1.23 21.82 18.709 6.77-20.077 7.133-33.779.612-23.121-11.943-57.19-20.132-77.478-4.635-11.48 44.373 16.124 36.567 6.514-14.238-17.53-32.694-32.145-45.858-48.352-17.055-20.997-24.405-34.878-36.56-59.196-10.5-21.011-5.946-25.34-22.617-35.952-17.602-11.206-33.647 17.928-44.935-4.655-7.85-15.709-37.868 9.422-52.683-.008-4.171-2.656-16.655-32.666-19.828-36.572-6.982-8.596-42.542 3.594-54.233 6.19l-11.157 2.478c-12.796 2.841-28.611 3.426-42.458 6.501-1.007.224-12.545 19.486-20.767 25.099z" opacity=".6" fill="url(#r)" fill-rule="evenodd" transform="translate(164.088 17.006)"/><path d="M551.429 263.79c0 52.073-42.214 94.286-94.286 94.286-52.073 0-94.286-42.213-94.286-94.285 0-52.073 42.213-94.286 94.286-94.286 52.072 0 94.286 42.213 94.286 94.286z" transform="matrix(.41415 -.09197 .09197 .41415 252.152 90.652)" fill="url(#s)" fill-rule="evenodd"/><path d="M551.429 263.79c0 52.073-42.214 94.286-94.286 94.286-52.073 0-94.286-42.213-94.286-94.285 0-52.073 42.213-94.286 94.286-94.286 52.072 0 94.286 42.213 94.286 94.286z" transform="rotate(-12.52 -227.957 641.614) scale(1.21212)" opacity=".6" fill="url(#t)" fill-rule="evenodd"/><path d="M221.722 18.129c-146.266 32.48-232.8 203.77-193.14 382.368C68.242 579.095 280.19 774.869 383.997 748.89c106.598-26.598 214.21-287.481 174.55-466.08-39.66-178.597-190.56-297.162-336.825-264.681zm-5.245 5.358c5.2-1.604 11.041-2.43 17.65-2.255 19.368.512 32.663 26.514 38.091 26.658 20.48.542 30.72-19.317 45.575-18.924 18.58.492 21.189 8.72 32.842 16.139 10.824 6.89 24.287 20.228 38.738 29.427 11.838 7.535 32.715 24.002 47.104 27.601 13.508 3.38 31.702 11.003 34.698 24.498 6.333 28.517-14.448 21.376-14.899 38.425-.62 23.426 41.676 16.277 48.04 44.936 6.58 29.63-30.816 41.326-22.019 45.864.178.092 72.199 61.527 30.995 60.437-23.066-.61-67.778-34.504-74.697-6.845-2.515 10.051-25.863 61.413-44.016 39.065-38.873-47.858-17.132 7.84-68.795 6.473-17.014-.45-14.75-19.046-14.254-37.809 2.072-78.29-54.61-11.47-55.16-37.496-1.658-78.521 6.578-10.145-17.646-39.969-14.593-17.967-25.614-36.775-52.063-23.555-40.782 20.383-6.405 29.476-4.95 56.703 1.352 25.316-31.75 21.715-17.676 39.041 4.725 5.817 30.882 53.188 22.316 47.735L176.1 353.11c-36.746-23.392-37.038 43.629-65.062-3.095-21.787-36.323-21.001 20.857-50.222 37.498-11.175 33.51-15.372 9.771-19.197-7.453-3.456-15.562-.494-28.606-4.328-45.871-6.254-28.164 15.771-21.03 28.81-41.514 7.588-11.92 36.258-30.446 9.317-37.186-14.15-3.54-37.511 6.534-19.844-10.222 11.358-10.773 59.758-50.389 37.207-69.724-12.698-10.888-49.657-41.663-8.374-50.83 36.848-8.184 45.988-9.052 46.798-39.651.66-24.917 38.08-10.894 51.462-31.915 8.28-13.008 18.212-24.849 33.811-29.66z" opacity=".4" fill="url(#u)" fill-rule="evenodd" transform="translate(164.088 17.006)"/><path d="M568.571 602.362c0 128.604-73.553 232.857-164.285 232.857C313.553 835.22 240 730.966 240 602.362c0-128.603 73.553-232.857 164.286-232.857 90.732 0 164.285 104.254 164.285 232.857z" transform="rotate(-33.353 272.398 518.645)" opacity=".53" fill="url(#v)" fill-rule="evenodd"/><path d="M568.571 602.362c0 128.604-73.553 232.857-164.285 232.857C313.553 835.22 240 730.966 240 602.362c0-128.603 73.553-232.857 164.286-232.857 90.732 0 164.285 104.254 164.285 232.857z" transform="matrix(.49782 -.32766 .30801 .46797 84.993 432.279)" opacity=".3" fill="url(#w)" fill-rule="evenodd"/><path d="M223.164 647.358c-18.335-24.262-60.966-66.68-84.57-101.252-13.366-19.58-23.259-50.613 1.323-49.962 37.267.986 32.963 59.583 31.556-7.008-.09-4.274 28.978 44.927 54.783 4.391 20.49-32.189 27.585 49.668 31.544 67.498 1.54 6.936 35.924 12.725 49.963 1.322 35.296-28.67 6.933 34.373 6.566 48.21-.89 33.663 73.164-41.607 76.704-46.006 32.96-40.965 50.845-10.706 72.759-45.13 23.006-36.14 48.394-65.383 66.192-93.34 14.1-22.15-23.01-31.228 10.087-47.77 25.06-12.525 21.8 45.561 16.208 54.347-13.638 21.424-38.608 14.175-39.451 46.012-.527 19.917-.88 33.317 4.374 56.975 4.693 21.132-20.482 53.457-30.25 68.803-13.828 21.722-3.489 30.229-31.563 44.26-19.255 9.625-21.792 50.293-39.45 46.012-13.722 11.146-36.205 27.08-46.024 35.055-18.363 14.915-39.258-16.117-68.368-9.652-21.973 4.88-45.83-9.49-58.286-20.17-11.998-10.287-20.75-37.526-24.097-52.595z" opacity=".1" fill="url(#x)" fill-rule="evenodd" transform="translate(164.088 17.006)"/><path d="M558.538 282.827c39.66 178.598-67.947 439.466-174.545 466.065C280.185 774.87 68.25 579.108 28.59 400.51-11.07 221.912 75.45 50.602 221.716 18.12c146.265-32.48 297.162 86.108 336.822 264.706z" fill="url(#y)" fill-rule="evenodd" transform="translate(164.088 17.006)"/><path d="M421.429 740.934c.007 13.02-20.462 23.578-45.715 23.578-25.252 0-45.721-10.558-45.714-23.578-.007-13.021 20.462-23.579 45.714-23.579 25.253 0 45.722 10.558 45.715 23.579z" transform="matrix(.95567 -.14762 .1429 .65673 72.723 319.378)" opacity=".3" fill="url(#z)" fill-rule="evenodd"/><path d="M372.746 735.235c-5.935 3.65-15.408 17.309-18.182 24.244-1.544 3.858-9.092 5.05-13.132 7.07-7.949 3.975-3.74 11.113 4.04 11.113 10.363 0 20.275.014 30.305 2.02 7.565 1.513 15.433 1.01 23.233 1.01 7.944 0 8.979-5.276 7.071-9.091-1.735-3.472-10.955-7.77-13.132-12.122-2.065-4.131-1.895-18.342-7.07-22.224-.382-.285-6.718-5.963-13.133-2.02z" fill="url(#A)" fill-rule="evenodd" transform="translate(164.088 17.006)"/><path d="M372.746 735.235c-5.935 3.65-15.408 17.309-18.182 24.244-1.544 3.858-9.092 5.05-13.132 7.07-7.949 3.975-3.74 11.113 4.04 11.113 10.363 0 20.275.014 30.305 2.02 7.565 1.513 15.433 1.01 23.233 1.01 7.944 0 8.979-5.276 7.071-9.091-1.735-3.472-10.955-7.77-13.132-12.122-2.065-4.131-1.895-18.342-7.07-22.224-.382-.285-6.718-5.963-13.133-2.02z" fill="url(#B)" fill-rule="evenodd" transform="translate(164.088 17.006)"/><path d="M372.746 735.235c-5.935 3.65-15.408 17.309-18.182 24.244-1.544 3.858-9.092 5.05-13.132 7.07-7.949 3.975-3.74 11.113 4.04 11.113 10.363 0 20.275.014 30.305 2.02 7.565 1.513 15.433 1.01 23.233 1.01 7.944 0 8.979-5.276 7.071-9.091-1.735-3.472-10.955-7.77-13.132-12.122-2.065-4.131-1.895-18.342-7.07-22.224-.382-.285-6.718-5.963-13.133-2.02z" opacity=".468" fill="url(#C)" fill-rule="evenodd" transform="translate(164.088 17.006)"/><path d="M372.746 735.235c-5.935 3.65-15.408 17.309-18.182 24.244-1.544 3.858-9.092 5.05-13.132 7.07-7.949 3.975-3.74 11.113 4.04 11.113 10.363 0 20.275.014 30.305 2.02 7.565 1.513 15.433 1.01 23.233 1.01 7.944 0 8.979-5.276 7.071-9.091-1.735-3.472-10.955-7.77-13.132-12.122-2.065-4.131-1.895-18.342-7.07-22.224-.382-.285-6.718-5.963-13.133-2.02z" opacity=".509" fill="url(#D)" fill-rule="evenodd" transform="translate(164.088 17.006)"/><path d="M358.604 766.356c3.383.438 11.266-.306 16.576-1.538 4.495-1.042 7.217-1.313 9.946-3.844 3.948-3.663 3.842-.53 9.117 1.895 2.93 3.128 7.176 2.082 10.147 8.1 2.93 2.72-11.805 0-15.949 0-4.452 0-8.3-.768-12.432-.768-2.85 0-8.665-1.05-10.774-1.538-3.282-.761-1.586-1.371-6.63-2.307z" opacity=".676" fill="url(#E)" fill-rule="evenodd" transform="translate(164.088 17.006)"/><path d="M387.143 752.362a8.571 8.571 0 1 1-17.143 0 8.571 8.571 0 0 1 17.143 0z" transform="matrix(.4687 -.1716 .34381 .93904 113.404 120.74)" opacity=".468" fill="url(#F)" fill-rule="evenodd"/><path d="M384.098 745.83c-.316.082-.628-.178-.941-.267 7.03 1.463.112-.148 1.183-1.558-.289-.21-.1.098-.23.225l4.013-9.423c1.896 1.22 3.96 1.866 5.079 4.061 4.662 11.94-2.84 20.797-15.457 15.351-8.586-7.9-5.367-17.927 6.353-18.753v10.364z" fill="url(#G)" transform="translate(164.088 17.006)"/><path d="M389.06 848.984c19.503 32.603-39.407 32.936-38.039 67.423 1.382 34.842 31.458 19.787 50.022 50.33l1.358 12.089c-27.176-37.965-52.084-27.653-53.16-61.72-1.075-34.069 44.853-45.571 40.61-61.82l-.79-6.302z" fill="url(#H)" transform="translate(164.088 17.006)"/><path d="M395.353 1000.714c-9.286 13.302-34.107 17.943-33.956 2.474.36-36.898 41.7-9.765 42.92 20.404.593 14.678-36.308 13.991-42.146 26.91l-1.06-8.487c4.898-11.006 39.144-9.575 37.447-17.73-5.807-27.907-21.85-36.132-32.52-27.469 1.285 15.131 21.256 9.918 28.94-3.584l.375 7.482z" fill="url(#I)" transform="translate(164.088 17.006)"/><path d="M409.787 998.301c-9.286 9.014-48.54 18.335-48.39 7.854l4.641-4.318c1.285 10.253 35.69.543 43.374-8.605l.375 5.07z" fill="url(#J)" transform="translate(164.088 17.006)"/><path d="M384.098 745.83c-.316.082-.628-.178-.941-.267 7.03 1.463.112-.148 1.183-1.558-.289-.21-.1.098-.23.225l4.013-9.423c1.896 1.22 3.96 1.866 5.079 4.061 4.662 11.94-2.84 20.797-15.457 15.351-8.586-7.9-5.367-17.927 6.353-18.753v10.364z" fill="url(#K)" transform="translate(164.088 17.006)"/><path d="M392.325 736.55c-9.75 22.19-12.99 1.442-21.292 2.753-12.744-.025-32.13 6.309-38.99 16.556-9.404 14.047-13.05 28.868-5.668 47.75 7.43 19.004 29.43 25.711 53.5 39.273l.311 4.008c-18.274-14.306-48.774-14.918-58.938-36.509-10.303-21.883-9.615-39.626 10.162-58.705 10.473-9.743 22.83-17.617 37.494-17.937l23.421 2.81z" fill="url(#L)" transform="translate(164.088 17.006)"/><path d="M392.325 736.55c-9.75 22.19-12.99 1.442-21.292 2.753-12.744-.025-16.792-5.244-2.13-5.564l23.422 2.81z" opacity=".639" fill="url(#M)" transform="translate(164.088 17.006)"/><path d="M695.62 790.558l-117.578 373.78 10.257 2.273 113.304-374.655-5.983-1.398z" fill="url(#N)" fill-rule="evenodd"/><path d="M1044.44 433.741c-32.07 180.116-231.72 379.543-340.35 363.103-105.815-15.94-226.17-278.15-194.1-458.265C542.06 158.464 687.806 33.6 835.314 59.864c147.509 26.265 241.197 193.762 209.127 373.877z" opacity=".75" fill="url(#O)" fill-rule="evenodd"/><path d="M1044.44 433.741c-32.07 180.116-231.72 379.543-340.35 363.103-105.815-15.94-226.17-278.15-194.1-458.265C542.06 158.464 687.806 33.6 835.314 59.864c147.509 26.265 241.197 193.762 209.127 373.877z" fill="url(#P)" fill-rule="evenodd"/><path d="M769.732 85.914c-11.27-4.561-41.307 4.201-54.138 10.675-26.381 13.311-42.945 22.895-62.46 41.116-29.962 27.972-10.807 37.837 24.122 27.512 26.685-7.89-25.56 27.92-32.83 37.685-12.138 16.31-35.253 19.708-48.203 26.242-13.508 6.816-19.461 27.873-43.58 32.87-26.318 5.453 7.886 28.542 16.493 37.761 13.754 14.732-27.826 38.817 17.996 29.323 27.02-5.598 27.612-22.672 29.94 11.136.768 11.15 58.208-15.978 61.267-18.112 3.573-2.493 18.321-54.003 18.956-57.569.013-.072 19.41-12.63 32.445-2.929 20.217 15.048 4.391 32.987 34.564 17.763 15.33-7.735 4.459 56.453 4.047 58.762-5.895 33.111 46.908 14.27 56.066 27.395 9.782 14.02-6.732 39.782 4.548 55.95 8.9 12.754 51.627-11.386 57.953-15.8 20.704-14.445 9.677-21.438 35.065 14.95 17.882 25.629 32.98-20.899 54.255 21.268 12.948 25.662 13.97-15.929 19.574-28.437 9.456-21.109 10.969-57.386 11.21-79.262.138-12.38 34.761 31.947 31.251 20.074-6.402-21.656-17.818-42.246-23.737-62.268-7.67-25.941-9.116-41.58-10.984-68.703-1.614-23.434 4.255-25.678-7.052-41.885-11.94-17.113-37.955 3.61-39.69-21.578-1.206-17.52-38.58-5.865-48.628-20.267-2.83-4.055-2.814-36.558-4.24-41.384-3.14-10.62-40.653-13.042-52.444-15.142l-11.251-2.003c-12.905-2.298-27.729-7.84-41.693-10.326-1.016-.18-19.074 13.163-28.822 15.183z" opacity=".6" fill="url(#Q)" fill-rule="evenodd"/><path d="M901.286 210.911c-3.872 21.75-24.643 36.241-46.392 32.369-21.75-3.873-36.242-24.643-32.369-46.393 3.873-21.75 24.643-36.241 46.393-32.369 21.75 3.873 36.241 24.644 32.368 46.393z" fill="url(#R)" fill-rule="evenodd"/><path d="M974.422 223.933c-11.065 62.141-70.41 103.547-132.55 92.482-62.141-11.064-103.547-70.409-92.482-132.55 11.064-62.14 70.409-103.546 132.55-92.482 62.14 11.065 103.546 70.41 92.482 132.55z" opacity=".6" fill="url(#S)" fill-rule="evenodd"/><path d="M835.317 59.873C687.81 33.608 542.058 158.45 509.987 338.565c-32.07 180.115 88.292 442.34 194.108 458.279 108.629 16.44 308.29-182.998 340.361-363.114 32.07-180.115-61.63-347.592-209.139-373.857zm-6.902 2.93c5.417.518 11.127 2.002 17.16 4.705 17.682 7.922 19.956 37.036 24.91 39.256 18.696 8.376 35.787-6.018 49.348.058 16.962 7.599 16.206 16.198 24.11 27.528 7.342 10.522 14.64 28.012 24.443 42.06 8.03 11.509 20.97 34.738 32.867 43.594 11.17 8.313 25.033 22.347 22.61 35.957-5.121 28.759-21.558 14.175-28.53 29.74-9.581 21.386 32.211 31.052 27.065 59.955-5.32 29.881-44.339 26.297-37.963 33.87.129.152 42.986 84.56 5.37 67.708-21.058-9.434-49.297-57.915-66.321-35.044-6.186 8.312-47.491 46.745-55.653 19.134-17.48-59.126-18.83.65-65.995-20.48-15.533-6.958-6.292-23.254 1.382-40.382 32.02-71.474-45.999-31.59-36.498-55.825 28.665-73.12 9.973-6.836-.92-43.682-6.561-22.197-9.502-43.796-39-41.764-45.485 3.133-17.248 24.746-26.376 50.438-8.487 23.89-37.658 7.836-31.33 29.242 2.125 7.187 8.054 60.974 2.244 52.646l-6.955-9.967c-24.924-35.723-50.967 26.03-58.868-27.876-6.143-41.909-27.407 11.177-60.78 15.3-23.203 26.637-17.948 3.11-14.855-14.261 2.795-15.695 10.545-26.597 13.645-44.009 5.057-28.403 22.646-13.348 42.56-27.242 11.587-8.085 45.177-14.162 22.9-30.743-11.7-8.71-37.14-8.394-14.388-17.068 14.628-5.576 74.54-23.533 61.16-50.054-7.536-14.933-29.818-57.555 11.816-50.142 37.162 6.617 45.933 9.33 58.448-18.605 10.19-22.747 39.34 4.588 59.777-9.67 12.646-8.824 26.367-15.935 42.617-14.378z" opacity=".4" fill="url(#T)" fill-rule="evenodd"/><path d="M851.274 489.665c23.958 126.352-28.885 242.484-118.03 259.387-89.144 16.903-180.831-71.823-204.79-198.175-23.958-126.352 28.886-242.484 118.03-259.387 89.144-16.903 180.832 71.823 204.79 198.175z" opacity=".53" fill="url(#U)" fill-rule="evenodd"/><path d="M800.698 579.227c13.423 70.787-18.765 136.337-71.893 146.411-53.127 10.074-107.077-39.144-120.499-109.93-13.422-70.788 18.765-136.338 71.893-146.412 53.128-10.074 107.077 39.144 120.5 109.931z" opacity=".3" fill="url(#V)" fill-rule="evenodd"/><path d="M594.675 641.27c-7.596-29.447-30.637-84.997-39.13-125.988-4.81-23.213-2.007-55.665 20.434-45.611 34.023 15.242 7.515 67.678 31.824 5.666 1.56-3.98 9.473 52.616 48.882 25.12 31.293-21.833 6.364 56.457 3.162 74.439-1.245 6.994 28.267 25.561 45.612 20.433 43.607-12.89-6.819 34.396-12.478 47.029-13.768 30.73 83.538-10.273 88.497-12.972 46.18-25.14 51.052 9.67 84.52-13.68 35.134-24.514 69.816-41.744 96.996-60.708 21.533-15.024-9.232-37.675 27.682-40.217 27.949-1.925 2.603 50.441-5.939 56.4-20.828 14.532-41.09-1.761-54.111 27.303-8.146 18.183-13.624 30.417-17.873 54.276-3.794 21.312-39.464 41.47-54.383 51.88-21.117 14.733-14.844 26.562-46.155 28.719-21.476 1.479-39.457 38.045-54.111 27.302-16.953 5.012-43.835 11.074-55.965 14.66-22.686 6.707-30.042-29.974-59.398-35.2-22.16-3.947-38.657-26.385-46.048-41.033-7.12-14.11-4.724-42.62-2.018-57.818z" opacity=".1" fill="url(#W)" fill-rule="evenodd"/><path d="M1044.44 433.741c-32.07 180.116-231.72 379.543-340.35 363.103-105.815-15.94-226.17-278.15-194.1-458.265C542.06 158.464 687.806 33.6 835.314 59.864c147.509 26.265 241.197 193.762 209.127 373.877z" fill="url(#X)" fill-rule="evenodd"/><path d="M743.31 789.204c-1.563 8.61-22.056 10.858-45.767 5.018-23.711-5.84-41.657-17.553-40.08-26.16 1.565-8.611 22.058-10.858 45.769-5.02 23.71 5.84 41.657 17.554 40.079 26.162z" opacity=".3" fill="url(#Y)" fill-rule="evenodd"/><path d="M698.96 779.912c-6.882 1.086-20.88 10.052-26.107 15.387-2.909 2.969-10.335 1.167-14.842 1.478-8.865.612-7.725 8.819-.543 11.81 9.566 3.986 18.71 7.81 27.197 13.52 6.402 4.305 13.858 6.867 21.059 9.867 7.333 3.054 10.317-1.418 10.023-5.673-.267-3.873-7.125-11.385-7.46-16.24-.318-4.608 5.303-17.66 2.019-23.234-.242-.41-3.908-8.088-11.346-6.915z" fill="url(#Z)" fill-rule="evenodd"/><path d="M698.96 779.912c-6.882 1.086-20.88 10.052-26.107 15.387-2.909 2.969-10.335 1.167-14.842 1.478-8.865.612-7.725 8.819-.543 11.81 9.566 3.986 18.71 7.81 27.197 13.52 6.402 4.305 13.858 6.867 21.059 9.867 7.333 3.054 10.317-1.418 10.023-5.673-.267-3.873-7.125-11.385-7.46-16.24-.318-4.608 5.303-17.66 2.019-23.234-.242-.41-3.908-8.088-11.346-6.915z" fill="url(#aa)" fill-rule="evenodd"/><path d="M698.96 779.912c-6.882 1.086-20.88 10.052-26.107 15.387-2.909 2.969-10.335 1.167-14.842 1.478-8.865.612-7.725 8.819-.543 11.81 9.566 3.986 18.71 7.81 27.197 13.52 6.402 4.305 13.858 6.867 21.059 9.867 7.333 3.054 10.317-1.418 10.023-5.673-.267-3.873-7.125-11.385-7.46-16.24-.318-4.608 5.303-17.66 2.019-23.234-.242-.41-3.908-8.088-11.346-6.915z" opacity=".468" fill="url(#ab)" fill-rule="evenodd"/><path d="M698.96 779.912c-6.882 1.086-20.88 10.052-26.107 15.387-2.909 2.969-10.335 1.167-14.842 1.478-8.865.612-7.725 8.819-.543 11.81 9.566 3.986 18.71 7.81 27.197 13.52 6.402 4.305 13.858 6.867 21.059 9.867 7.333 3.054 10.317-1.418 10.023-5.673-.267-3.873-7.125-11.385-7.46-16.24-.318-4.608 5.303-17.66 2.019-23.234-.242-.41-3.908-8.088-11.346-6.915z" opacity=".509" fill="url(#ac)" fill-rule="evenodd"/><path d="M673.938 803.202c2.954 1.705 10.517 4.05 15.893 4.954 4.55.767 7.167 1.564 10.66.276 5.052-1.863 3.75.99 7.686 5.255 1.502 4.015 5.824 4.683 6.252 11.38 1.66 3.637-10.897-4.539-14.722-6.133-4.11-1.712-7.366-3.901-11.18-5.49-2.633-1.097-7.597-4.3-9.356-5.563-2.736-1.965-.936-1.875-5.233-4.68z" opacity=".676" fill="url(#ad)" fill-rule="evenodd"/><path d="M711.082 794.234c-.207 4.73-2.289 8.48-4.65 8.376-2.36-.103-4.106-4.02-3.899-8.75.207-4.73 2.289-8.48 4.65-8.376 2.36.103 4.106 4.02 3.899 8.75z" opacity=".468" fill="url(#ae)" fill-rule="evenodd"/><path d="M705.365 794.058c-.323-.046-.511-.406-.766-.609 5.927 4.055.16-.093 1.69-.983-.185-.305-.13.052-.298.12l7.328-7.156c1.28 1.856 2.938 3.245 3.127 5.702-.288 12.814-10.619 18.106-20.172 8.227-4.887-10.595 1.94-18.613 13.077-14.869l-3.986 9.568z" fill="url(#af)"/><path d="M670.978 891.48c5.466 37.595-49.743 14.957-61.743 47.317-12.123 32.695 22.13 30.656 27.522 65.989l-3.395 11.68c-10.487-45.495-38.147-45.847-26.038-77.708 12.108-31.862 59.628-24.526 61.961-41.157l1.693-6.121z" fill="url(#ag)"/><path d="M619.738 1033.67c-13.688 8.707-56.513 6.603-50.425-7.618 14.522-33.922 58.376 3.865 47.9 32.183-5.096 13.778-38.895-1.047-49.252 8.634l2.284-8.243c8.754-8.276 39.817 6.215 41.386-1.965 5.371-27.994-22.403-38.6-35.584-34.706-4.632 14.462 33.936 14.173 46.222 4.664l-2.531 7.05z" fill="url(#ah)"/><path d="M617.738 1033.67c-13.688 8.707-54.513 6.603-48.425-7.618l6.734-4.097c-4.632 14.462 31.936 14.173 44.222 4.664l-2.531 7.05z" fill="url(#ai)"/><path d="M705.365 794.058c-.323-.046-.511-.406-.766-.609 5.927 4.055.16-.093 1.69-.983-.185-.305-.13.052-.298.12l7.328-7.156c1.28 1.856 2.938 3.245 3.127 5.702-.288 12.814-10.619 18.106-20.172 8.227-4.887-10.595 1.94-18.613 13.077-14.869l-3.986 9.568z" fill="url(#aj)"/><path d="M716.528 788.655c-17.535 16.735-12.545-3.664-20.714-5.647-11.754-4.923-32.085-6.531-42.357.29-14.084 9.35-23.15 21.629-23.596 41.897-.45 20.4 19.383 35.929 36.387 57.704l-1.254 3.82c-11.367-20.233-41.39-33.404-42.47-57.243-1.095-24.163 6.363-40.277 31.956-50.283 13.415-4.967 27.85-7.483 41.508-2.14l20.54 11.602z" fill="url(#ak)"/><path d="M716.528 788.655c-17.535 16.735-12.545-3.664-20.714-5.647-11.754-4.923-13.484-11.298.174-5.954l20.54 11.601z" opacity=".639" fill="url(#al)"/><path d="M446.349 827.921l71.38 339.846 9.056.896-72.506-342.349-7.93 1.607z" fill="url(#am)" fill-rule="evenodd"/><path d="M586.154 348.334c57.212 173.773-23.94 444.043-127.366 481.102-100.713 36.166-331.053-137.567-388.264-311.34C13.312 344.324 82.38 165.264 224.694 118.41c142.314-46.854 304.248 56.152 361.46 229.925z" opacity=".75" fill="url(#an)" fill-rule="evenodd"/><path d="M586.154 348.334c57.212 173.773-23.94 444.043-127.366 481.102-100.713 36.166-331.053-137.567-388.264-311.34C13.312 344.324 82.38 165.264 224.694 118.41c142.314-46.854 304.248 56.152 361.46 229.925z" fill="url(#ao)" fill-rule="evenodd"/><path d="M782.115 437.223a131.069 247.097 0 1 1-262.138 0 131.069 247.097 0 1 1 262.138 0z" transform="matrix(1.22025 0 0 1 -135.794 0)" opacity=".15" fill="url(#ap)" fill-rule="evenodd"/><path d="M179.319 172.453c-12.085 1.33-34.37 23.294-42.595 35.08-16.91 24.232-26.943 40.527-35.48 65.825-13.106 38.838 8.436 38.435 34.286 12.776 19.75-19.604-9.256 36.704-11.022 48.749-2.95 20.115-21.686 34.073-29.986 45.968-8.658 12.408-3.91 33.769-22.771 49.61-20.582 17.284 20.481 21.384 32.433 25.417 19.096 6.444-6.083 47.372 29.752 17.277 21.13-17.746 13.551-33.057 31.639-4.4 5.965 9.45 43.662-41.68 45.342-45.009 1.963-3.89-9.49-56.231-10.622-59.67-.023-.07 11.096-20.328 27.172-17.97 24.937 3.656 19.515 26.955 38.854-.76 9.826-14.082 30.706 47.581 31.439 49.809 10.517 31.945 48.063-9.69 62.352-2.48 15.261 7.701 12.945 38.214 30.545 47.095 13.884 7.007 40.046-34.513 43.522-41.4 11.373-22.538-1.651-23.463 37.96-3.474 27.9 14.079 19.118-34.042 57.85-7.015 23.572 16.448 4.743-20.65 3.742-34.32-1.689-23.067-17.567-55.72-27.732-75.094-5.752-10.963 45.756 11.635 37.034 2.848-15.91-16.027-35.727-28.737-50.436-43.555-19.057-19.199-27.75-32.28-42.26-55.27-12.538-19.864-8.436-24.624-26.079-33.527-18.63-9.401-31.7 21.183-45.175-.167-9.373-14.85-36.745 13.139-52.423 5.227-4.415-2.228-19.82-30.849-23.364-34.42-7.802-7.86-41.975 7.804-53.35 11.549l-10.856 3.574c-12.45 4.1-28.129 6.253-41.6 10.688-.98.323-10.548 20.637-18.171 27.039z" opacity=".6" fill="url(#aq)" fill-rule="evenodd"/><path d="M354.425 220.083c6.909 20.983-4.501 43.594-25.485 50.502-20.983 6.909-43.594-4.501-50.502-25.485-6.909-20.983 4.501-43.594 25.485-50.502 20.983-6.909 43.594 4.501 50.502 25.485z" fill="url(#ar)" fill-rule="evenodd"/><path d="M424.985 196.852c19.739 59.953-12.862 124.555-72.814 144.293-59.953 19.739-124.555-12.861-144.293-72.814-19.739-59.953 12.861-124.555 72.814-144.293 59.953-19.739 124.555 12.862 144.293 72.814z" opacity=".6" fill="url(#as)" fill-rule="evenodd"/><path d="M224.701 118.416C82.387 165.27 13.303 344.312 70.515 518.085c57.212 173.772 287.564 347.515 388.277 311.35 103.426-37.06 184.582-307.345 127.37-481.118-57.211-173.773-219.147-276.755-361.46-229.901zm-4.686 5.853c5.015-2.113 10.745-3.515 17.338-3.998 19.324-1.414 35.137 23.137 40.552 22.74 20.432-1.495 28.649-22.273 43.47-23.358 18.536-1.357 21.95 6.572 34.283 12.795 11.454 5.78 26.176 17.715 41.47 25.432 12.527 6.322 34.938 20.632 49.613 22.784 13.777 2.02 32.638 7.798 36.961 20.929 9.135 27.746-12.252 22.705-11.007 39.715 1.711 23.371 43.087 12.055 52.268 39.94 9.491 28.828-26.557 44.183-17.352 47.824.186.074 77.955 54.049 36.847 57.058-23.013 1.685-70.872-27.598-75.008.612-1.503 10.252-19.632 63.68-39.916 43.245-43.436-43.758-16.268 9.505-67.811 13.279-16.975 1.242-16.57-17.487-17.94-36.206-5.719-78.109-55.48-5.987-58.613-31.83-9.453-77.967 5.537-10.748-21.531-38.017-16.307-16.427-29.142-34.047-54.146-18.265-38.555 24.336-3.444 29.967.708 56.915 3.862 25.056-29.433 24.762-13.708 40.604 5.28 5.319 36.015 49.856 26.95 45.281l-10.85-5.475c-38.889-19.624-32.52 47.093-65.048 3.386-25.288-33.979-18.825 22.84-46.247 42.303-7.79 34.455-14.325 11.25-19.843-5.509-4.985-15.141-3.334-28.415-8.865-45.214-9.022-27.403 13.603-22.493 24.543-44.171 6.365-12.614 33.052-33.898 5.575-37.927-14.431-2.116-36.676 10.229-20.762-8.2 10.232-11.848 54.456-56.078 30.095-73.076-13.718-9.572-53.552-36.523-13.385-49.747 35.853-11.804 44.862-13.577 42.627-44.105-1.82-24.86 36.809-14.624 48.035-36.871 6.947-13.767 15.653-26.535 30.697-32.873z" opacity=".4" fill="url(#at)" fill-rule="evenodd"/><path d="M442.635 489.2c81.03 99.865 89.602 227.165 19.146 284.334-70.457 57.169-193.262 22.557-274.292-77.308-81.03-99.865-89.602-227.165-19.145-284.334 70.456-57.168 193.26-22.556 274.291 77.308z" opacity=".53" fill="url(#au)" fill-rule="evenodd"/><path d="M440.6 592.035c45.395 55.948 48.156 128.923 6.166 162.994-41.99 34.07-112.832 16.336-158.228-39.612-45.396-55.947-48.156-128.922-6.166-162.993 41.99-34.07 112.831-16.336 158.227 39.611z" opacity=".3" fill="url(#av)" fill-rule="evenodd"/><path d="M288.665 744.387c-20.655-22.32-67.291-60.29-94.213-92.347-15.246-18.153-28.174-48.05-3.649-49.846 37.181-2.722 38.72 56.013 30.704-10.108-.515-4.245 33.3 41.825 54.947-1.075 17.191-34.066 32.385 46.68 38.097 64.029 2.221 6.748 37.01 9.093 49.846-3.65 32.273-32.034 10.314 33.514 11.325 47.32 2.458 33.584 68.667-48.672 71.752-53.401 28.727-44.038 49.53-15.706 67.914-52.137 19.3-38.248 41.658-69.868 56.589-99.457 11.829-23.44-26-28.785 5.29-48.535 23.691-14.954 26.22 43.17 21.528 52.468-11.441 22.673-37.008 17.941-34.683 49.704 1.455 19.871 2.436 33.24 10.014 56.259 6.77 20.56-15.068 55.228-23.263 71.468-11.601 22.989-.467 30.426-27.008 47.178-18.204 11.49-16.686 52.21-34.683 49.704-12.546 12.454-33.335 30.544-42.312 39.455-16.79 16.666-40.666-12.136-68.989-2.81-21.38 7.038-46.546-4.889-60.002-14.278-12.96-9.044-24.377-35.279-29.204-49.94z" opacity=".1" fill="url(#aw)" fill-rule="evenodd"/><path d="M586.154 348.334c57.212 173.773-23.94 444.043-127.366 481.102-100.713 36.166-331.053-137.567-388.264-311.34C13.312 344.324 82.38 165.264 224.694 118.41c142.314-46.854 304.248 56.152 361.46 229.925z" fill="url(#ax)" fill-rule="evenodd"/><path d="M489.69 804.105c2.708 8.322-14.267 20.022-37.91 26.13-23.643 6.108-44.998 4.309-47.693-4.017-2.708-8.322 14.267-20.022 37.91-26.13 23.643-6.107 44.998-4.309 47.693 4.017z" opacity=".3" fill="url(#ay)" fill-rule="evenodd"/><path d="M446.24 816.965c-5.544 4.221-13.613 18.754-15.684 25.93-1.152 3.993-8.545 5.93-12.365 8.342-7.514 4.744-2.616 11.428 5.125 10.655 10.312-1.03 20.176-2 30.356-1.001 7.677.753 15.456-.529 23.218-1.304 7.905-.79 8.41-6.142 6.133-9.749-2.072-3.282-11.673-6.642-14.271-10.757-2.466-3.905-3.709-18.062-9.245-21.41-.407-.247-7.277-5.267-13.268-.706z" fill="url(#az)" fill-rule="evenodd"/><path d="M446.24 816.965c-5.544 4.221-13.613 18.754-15.684 25.93-1.152 3.993-8.545 5.93-12.365 8.342-7.514 4.744-2.616 11.428 5.125 10.655 10.312-1.03 20.176-2 30.356-1.001 7.677.753 15.456-.529 23.218-1.304 7.905-.79 8.41-6.142 6.133-9.749-2.072-3.282-11.673-6.642-14.271-10.757-2.466-3.905-3.709-18.062-9.245-21.41-.407-.247-7.277-5.267-13.268-.706z" fill="url(#aA)" fill-rule="evenodd"/><path d="M446.24 816.965c-5.544 4.221-13.613 18.754-15.684 25.93-1.152 3.993-8.545 5.93-12.365 8.342-7.514 4.744-2.616 11.428 5.125 10.655 10.312-1.03 20.176-2 30.356-1.001 7.677.753 15.456-.529 23.218-1.304 7.905-.79 8.41-6.142 6.133-9.749-2.072-3.282-11.673-6.642-14.271-10.757-2.466-3.905-3.709-18.062-9.245-21.41-.407-.247-7.277-5.267-13.268-.706z" opacity=".468" fill="url(#aB)" fill-rule="evenodd"/><path d="M446.24 816.965c-5.544 4.221-13.613 18.754-15.684 25.93-1.152 3.993-8.545 5.93-12.365 8.342-7.514 4.744-2.616 11.428 5.125 10.655 10.312-1.03 20.176-2 30.356-1.001 7.677.753 15.456-.529 23.218-1.304 7.905-.79 8.41-6.142 6.133-9.749-2.072-3.282-11.673-6.642-14.271-10.757-2.466-3.905-3.709-18.062-9.245-21.41-.407-.247-7.277-5.267-13.268-.706z" opacity=".509" fill="url(#aC)" fill-rule="evenodd"/><path d="M435.26 849.337c3.41.1 11.18-1.424 16.341-3.177 4.369-1.484 7.051-2.024 9.515-4.814 3.564-4.037 3.77-.908 9.26.98 3.226 2.822 7.347 1.359 10.901 7.052 3.186 2.414-11.746 1.173-15.87 1.585-4.43.442-8.334.06-12.446.47-2.837.284-8.727-.182-10.874-.46-3.342-.43-1.715-1.206-6.827-1.636z" opacity=".676" fill="url(#aD)" fill-rule="evenodd"/><path d="M443.704 823.823c2.061 4.261 2.008 8.55-.119 9.579s-5.522-1.592-7.584-5.853c-2.06-4.262-2.008-8.55.12-9.58 2.127-1.028 5.522 1.592 7.583 5.854z" opacity=".468" fill="url(#aE)" fill-rule="evenodd"/><path d="M438.588 826.38c-.306.113-.642-.115-.964-.173 7.142.757.098-.158 1.023-1.668-.308-.18-.09.108-.207.247l3.057-9.775c2.008 1.026 4.126 1.463 5.458 3.537 5.825 11.416-.759 20.976-13.856 16.81-9.328-7.008-7.121-17.304 4.459-19.292l1.03 10.314z" fill="url(#aF)"/><path d="M464.554 908.063c-9.44 36.799 49.867 38.172 58.35 71.627 8.57 33.8-28.512 2.122-37.637 36.68l2.131 11.976c15.275-44.119 46.055-15.521 37.41-48.492-8.644-32.97-58.675-48.74-59.223-65.524l-1.03-6.267z" fill="url(#aG)"/><g><path d="M491.889 1079.172c-7.919 14.16-41.629 31.384-43.016 15.977-3.308-36.751 53.223-24.29 57.435 5.608 2.05 14.547-34.737 17.53-39.262 30.965l-1.9-8.34c3.781-11.438 38-13.417 35.501-21.363-8.552-27.191-38.033-23.351-47.789-13.671 2.782 14.928 33.602-2.563 39.906-16.762l-.875 7.586z" fill="url(#aH)" transform="scale(-1 1) rotate(5.12 323.357 -10040.147)"/><path d="M489.619 1079.376c-7.919 14.159-39.359 31.18-40.746 15.773l3.985-6.801c2.782 14.928 31.332-2.36 37.636-16.559l-.875 7.587z" fill="url(#aI)" transform="scale(-1 1) rotate(5.12 323.357 -10040.147)"/></g><path d="M438.588 826.38c-.306.113-.642-.115-.964-.173 7.142.757.098-.158 1.023-1.668-.308-.18-.09.108-.207.247l3.057-9.775c2.008 1.026 4.126 1.463 5.458 3.537 5.825 11.416-.759 20.976-13.856 16.81-9.328-7.008-7.121-17.304 4.459-19.292l1.03 10.314z" fill="url(#aJ)"/><path d="M430.141 819.059c16.075 18.14 12.808-2.603 21.114-3.896 12.124-3.925 32.518-3.829 42.185 3.827 13.252 10.495 21.26 23.488 20.012 43.722-1.257 20.367-26.318 14.184-45.082 34.462l.93 3.911c13.019-19.212 48.037-9.828 51.106-33.494 3.11-23.986-2.976-40.667-27.643-52.777-12.953-6.07-27.128-9.783-41.185-5.6l-21.437 9.845z" fill="url(#aK)"/><path d="M445.852 816.328c-7.497 23.05-12.782 2.726-20.914 4.855-12.682 1.242-17.23-3.549-2.671-5.324l23.585.469z" opacity=".639" fill="url(#aL)"/><path d="M584.437 473.75a96.69 257.84 0 1 1-193.38 0 96.69 257.84 0 1 1 193.38 0z" transform="matrix(.98588 -.16181 .16746 .95261 -68.15 66.993)" opacity=".15" fill="url(#aM)" fill-rule="evenodd"/><path d="M653.715 683.68c-2.301 3.264-1.845 6.055-.165 11.604.935 3.087-3.807 4.585-5.618 6.45-3.562 3.668 3.194 8.836 8.73 8.238 7.373-.796 14.434-1.547 22.628-.774 6.18.583 11.513-.409 17.064-1.008 5.652-.61 3.609-4.75.241-7.538-3.064-2.538-11.889-5.136-15.73-8.317-3.647-3.02-11.014-9.966-16.742-12.555.653 4.106-7.922.373-10.408 3.9z" opacity=".15" fill="url(#aN)" fill-rule="evenodd"/><path d="M650.412 689.821c-6.113 15.956 4.038 47.01 12.005 65.761 7.319 15.227 15.94 29.877 27.587 42.183l-6.772 6.101c-11.661-13.527-20.585-29.017-28.231-45.127-7.244-16.986-32.176-69.765-3.267-78.734l-1.322 9.816z" opacity=".1" fill="url(#aO)"/><path d="M527.982 684.217c-2.292 1.825-5.07 8.844-5.555 12.436-.269 2-3.571 2.515-5.184 3.515-3.172 1.967-.454 5.766 3.087 5.879 4.718.15 9.232.3 14.024 1.495 3.613.902 7.139.752 10.69.864 3.617.115 3.495-2.634 2.198-4.66-1.18-1.843-5.86-4.227-7.34-6.539-1.404-2.194-2.922-9.635-5.714-11.743-.206-.155-3.728-3.22-6.206-1.247z" opacity=".15" fill="url(#aP)" fill-rule="evenodd"/><path d="M520.397 692.483c-14.907 8.35-26.978 38.71-32.854 58.217-4.12 16.385-6.87 33.159-5.793 50.07l-9.108.355c-.305-17.858 2.75-35.472 7.181-52.744 5.304-17.689 19.917-74.202 47.872-62.595l-7.298 6.697z" opacity=".15" fill="url(#aQ)"/></svg>
